<svg width="790" height="259" viewBox="0 0 790 259" fill="none" xmlns="http://www.w3.org/2000/svg">
<g clip-path="url(#clip0_68_4664)">
<mask id="mask0_68_4664" style="mask-type:luminance" maskUnits="userSpaceOnUse" x="0" y="0" width="197" height="201">
<path d="M0.614258 0.0895996H196.659V200.766H0.614258V0.0895996Z" fill="white"/>
</mask>
<g mask="url(#mask0_68_4664)">
<path d="M195.002 91.5011H102.997V118.787H168.252C165.018 156.979 133.178 173.374 103.108 173.374C101.921 173.378 100.734 173.355 99.5466 173.301C98.3617 173.246 97.1769 173.163 95.9963 173.052C94.8135 172.94 93.635 172.797 92.4608 172.627C91.2866 172.455 90.1166 172.255 88.9509 172.027C87.7873 171.797 86.628 171.54 85.4771 171.253C84.3242 170.968 83.1797 170.653 82.0438 170.308C80.9079 169.966 79.7804 169.596 78.6615 169.196C77.5447 168.796 76.4364 168.37 75.3409 167.915C74.2433 167.462 73.1584 166.981 72.0863 166.473C71.0141 165.965 69.9527 165.431 68.9082 164.869C67.8616 164.31 66.8299 163.722 65.8131 163.112C64.7941 162.499 63.7943 161.863 62.8073 161.202C61.8224 160.54 60.8545 159.855 59.9036 159.145C58.9507 158.436 58.0189 157.702 57.1021 156.947C56.1874 156.192 55.2918 155.414 54.4154 154.614C53.539 153.814 52.6839 152.991 51.8479 152.148C51.0119 151.306 50.1971 150.442 49.4058 149.559C48.6123 148.677 47.8423 147.775 47.0935 146.854C46.3469 145.933 45.6215 144.992 44.9195 144.035C44.2196 143.078 43.541 142.104 42.8901 141.112C42.2371 140.121 41.6074 139.115 41.0054 138.094C40.4034 137.07 39.8248 136.035 39.2738 134.984C38.7229 133.933 38.1975 132.869 37.6997 131.793C37.2019 130.714 36.7297 129.627 36.2851 128.528C35.8405 127.426 35.4236 126.315 35.0343 125.194C34.645 124.073 34.2834 122.944 33.9515 121.806C33.6175 120.667 33.3133 119.521 33.0368 118.366C32.7603 117.213 32.5135 116.051 32.2944 114.886C32.0774 113.72 31.886 112.548 31.7264 111.374C31.5669 110.197 31.435 109.019 31.3329 107.836C31.2308 106.655 31.1585 105.471 31.1159 104.286C31.0734 103.099 31.0606 101.914 31.0755 100.727C31.0755 59.4204 63.0711 27.6184 103.195 27.6184C134.148 27.6184 152.387 47.3378 152.387 47.3378L171.494 27.5504C171.494 27.5504 146.948 0.251709 102.195 0.251709C45.2067 0.251709 1.12207 48.3227 1.12207 100.242C1.12207 151.119 42.5902 200.732 103.635 200.732C157.333 200.732 196.639 163.965 196.639 109.6C196.639 98.1274 194.972 91.5011 194.972 91.5011H195.002Z" fill="#4885ED"/>
</g>
<path d="M270.376 71.7366C232.618 71.7366 205.562 101.241 205.562 135.636C205.562 170.553 231.797 200.6 270.816 200.6C306.135 200.6 335.065 173.622 335.065 136.385C335.065 93.7853 301.408 71.7302 270.376 71.7302V71.7366ZM270.744 97.0463C289.306 97.0463 306.898 112.052 306.898 136.223C306.898 159.874 289.378 175.311 270.655 175.311C250.078 175.311 233.911 158.844 233.911 136.032C233.911 113.705 249.931 97.0463 270.801 97.0463H270.744Z" fill="#DB3236"/>
<path d="M411.33 71.7366C373.572 71.7366 346.514 101.241 346.514 135.636C346.514 170.553 372.749 200.6 411.771 200.6C447.087 200.6 476.019 173.622 476.019 136.385C476.019 93.7853 442.362 71.7302 411.33 71.7302V71.7366ZM411.696 97.0463C430.26 97.0463 447.852 112.052 447.852 136.223C447.852 159.874 430.333 175.311 411.609 175.311C391.032 175.311 374.865 158.844 374.865 136.032C374.865 113.705 390.885 97.0463 411.756 97.0463H411.696Z" fill="#F4C20D"/>
<mask id="mask1_68_4664" style="mask-type:luminance" maskUnits="userSpaceOnUse" x="487" y="71" width="125" height="188">
<path d="M487.46 71.7021H611.622V258.623H487.46V71.7021Z" fill="white"/>
</mask>
<g mask="url(#mask1_68_4664)">
<path d="M549.579 71.8108C514.922 71.8108 487.689 102.143 487.689 136.193C487.689 174.975 519.266 200.695 548.977 200.695C567.348 200.695 577.122 193.401 584.251 185.037V197.742C584.251 219.974 570.743 233.29 550.357 233.29C530.664 233.29 520.787 218.653 517.29 210.353L492.51 220.636C501.299 239.219 518.994 258.585 550.564 258.585C585.101 258.585 611.277 236.898 611.277 191.403V75.6802H584.353V86.595C576.048 77.6351 564.674 71.8108 549.594 71.8108H549.579ZM552.078 97.0758C569.066 97.0758 586.514 111.575 586.514 136.334C586.514 161.503 569.096 175.37 551.702 175.37C533.229 175.37 516.039 160.386 516.039 136.568C516.039 111.83 533.897 97.0673 552.078 97.0673V97.0758Z" fill="#4885ED"/>
</g>
<path d="M731.617 71.6558C698.93 71.6558 671.482 97.6568 671.482 135.996C671.482 176.583 702.076 200.651 734.682 200.651C761.96 200.651 778.773 185.741 788.692 172.373L766.406 157.553C760.622 166.513 750.951 175.29 734.821 175.29C716.699 175.29 708.366 165.375 703.199 155.753L789.641 119.91L785.231 109.408C776.884 88.8416 757.403 71.6558 731.623 71.6558H731.617ZM732.742 96.4379C744.521 96.4379 752.993 102.694 756.595 110.201L698.864 134.313C696.367 115.642 714.076 96.4379 732.668 96.4379H732.742Z" fill="#DB3236"/>
<path d="M630.206 196.832H658.602V6.91992H630.206V196.832Z" fill="#3CBA54"/>
</g>
<defs>
<clipPath id="clip0_68_4664">
<rect width="789.385" height="259" fill="white" transform="translate(0.614258)"/>
</clipPath>
</defs>
</svg>
